<?xml version="1.0" standalone="no"?>
<!DOCTYPE svg PUBLIC "-//W3C//DTD SVG 20010904//EN"
 "http://www.w3.org/TR/2001/REC-SVG-20010904/DTD/svg10.dtd">
<svg version="1.0" xmlns="http://www.w3.org/2000/svg"
 width="350.000000pt" height="350.000000pt" viewBox="0 0 350.000000 350.000000"
 preserveAspectRatio="xMidYMid meet">
<metadata>
Created by potrace 1.14, written by Peter Selinger 2001-2017
</metadata>
<g transform="translate(0.000000,350.000000) scale(0.100000,-0.100000)"
fill="#000000" stroke="none">
<path d="M577 2847 l-88 -222 1 -932 0 -933 330 0 330 0 0 -180 0 -180 168 0
167 0 180 180 180 180 255 0 255 0 343 343 342 342 0 813 0 812 -1187 0 -1188
0 -88 -223z m2223 -659 l0 -643 -197 -197 -198 -198 -315 0 -315 0 -177 -177
-178 -178 0 178 0 177 -270 0 -270 0 0 840 0 840 960 0 960 0 0 -642z"/>
<path d="M2087 2320 c-159 -171 -293 -310 -299 -310 -5 0 -102 63 -216 140
l-206 140 -48 -72 c-26 -40 -44 -75 -40 -79 7 -6 449 -302 483 -324 59 -36 33
-57 354 287 165 176 320 343 345 371 l44 50 -58 54 c-33 29 -62 53 -65 53 -3
0 -136 -140 -294 -310z"/>
</g>
</svg>
